<svg width="27" height="17" viewBox="0 0 27 17" fill="none" xmlns="http://www.w3.org/2000/svg">
<path fill-rule="evenodd" clip-rule="evenodd" d="M0.251953 8.64639C0.251953 8.4003 0.34971 8.1643 0.523718 7.99029C0.697727 7.81628 0.933733 7.71852 1.17982 7.71852H23.0644L17.2245 1.8804C17.0502 1.70617 16.9523 1.46987 16.9523 1.22347C16.9523 0.977075 17.0502 0.74077 17.2245 0.566542C17.3987 0.392314 17.635 0.294434 17.8814 0.294434C18.1278 0.294434 18.3641 0.392314 18.5383 0.566542L25.9612 7.98946C26.0476 8.07565 26.1162 8.17804 26.163 8.29077C26.2097 8.4035 26.2338 8.52434 26.2338 8.64639C26.2338 8.76844 26.2097 8.88928 26.163 9.00201C26.1162 9.11473 26.0476 9.21713 25.9612 9.30332L18.5383 16.7262C18.3641 16.9005 18.1278 16.9983 17.8814 16.9983C17.635 16.9983 17.3987 16.9005 17.2245 16.7262C17.0502 16.552 16.9523 16.3157 16.9523 16.0693C16.9523 15.8229 17.0502 15.5866 17.2245 15.4124L23.0644 9.57425H1.17982C0.933733 9.57425 0.697727 9.4765 0.523718 9.30249C0.34971 9.12848 0.251953 8.89247 0.251953 8.64639Z" fill="black"/>
</svg>
