<svg width="27" height="27" viewBox="0 0 27 27" fill="none" xmlns="http://www.w3.org/2000/svg">
<path d="M23.668 19.9965C23.668 20.3565 23.5878 20.7265 23.4176 21.0865C23.2473 21.4465 23.027 21.7865 22.7366 22.1065C22.2458 22.6465 21.705 23.0365 21.0941 23.2865C20.4932 23.5365 19.8422 23.6665 19.1412 23.6665C18.1196 23.6665 17.028 23.4265 15.8763 22.9365C14.7246 22.4465 13.5728 21.7865 12.4311 20.9565C11.2794 20.1165 10.1877 19.1865 9.14619 18.1565C8.11464 17.1165 7.18324 16.0265 6.35199 14.8865C5.53076 13.7465 4.86977 12.6065 4.38905 11.4765C3.90833 10.3365 3.66797 9.24653 3.66797 8.20653C3.66797 7.52653 3.78815 6.87653 4.02851 6.27653C4.26887 5.66653 4.64944 5.10653 5.18024 4.60653C5.8212 3.97653 6.52225 3.66653 7.26336 3.66653C7.54378 3.66653 7.8242 3.72653 8.07458 3.84653C8.33497 3.96653 8.56532 4.14653 8.74559 4.40653L11.0691 7.67653C11.2493 7.92653 11.3795 8.15653 11.4697 8.37653C11.5598 8.58653 11.6099 8.79653 11.6099 8.98653C11.6099 9.22653 11.5398 9.46653 11.3996 9.69653C11.2694 9.92653 11.0791 10.1665 10.8387 10.4065L10.0776 11.1965C9.96742 11.3065 9.91734 11.4365 9.91734 11.5965C9.91734 11.6765 9.92736 11.7465 9.94739 11.8265C9.97743 11.9065 10.0075 11.9665 10.0275 12.0265C10.2078 12.3565 10.5182 12.7865 10.9589 13.3065C11.4096 13.8265 11.8903 14.3565 12.4111 14.8865C12.9519 15.4165 13.4727 15.9065 14.0035 16.3565C14.5243 16.7965 14.9549 17.0965 15.2954 17.2765C15.3455 17.2965 15.4056 17.3265 15.4757 17.3565C15.5558 17.3865 15.6359 17.3965 15.7261 17.3965C15.8963 17.3965 16.0265 17.3365 16.1367 17.2265L16.8978 16.4765C17.1482 16.2265 17.3886 16.0365 17.6189 15.9165C17.8492 15.7765 18.0796 15.7065 18.33 15.7065C18.5202 15.7065 18.7205 15.7465 18.9409 15.8365C19.1612 15.9265 19.3916 16.0565 19.6419 16.2265L22.9569 18.5765C23.2173 18.7565 23.3976 18.9665 23.5077 19.2165C23.6079 19.4665 23.668 19.7165 23.668 19.9965Z" stroke="#232E52" stroke-width="1.66667" stroke-miterlimit="10"/>
</svg>
