<svg width="236" height="67" viewBox="0 0 236 67" fill="none" xmlns="http://www.w3.org/2000/svg">
<path d="M68.4862 53.5751V64.2333H67.7089V59.1611H60.5561V64.2333H59.7788V53.5751H60.5561V58.4759H67.7089V53.5751H68.4862ZM85.6531 56.2254C86.4823 56.1695 87.3 56.4432 87.9277 56.9867C88.2073 57.2788 88.4222 57.6263 88.5586 58.0066C88.6949 58.387 88.7497 58.7916 88.7193 59.1944V64.2333H87.9849V62.8058C87.7313 63.274 87.3425 63.6552 86.8691 63.9002C86.3234 64.1664 85.7214 64.297 85.1142 64.2809C84.3607 64.3211 83.6164 64.101 83.0065 63.6575C82.7728 63.4584 82.584 63.212 82.4527 62.9348C82.3213 62.6575 82.2504 62.3556 82.2445 62.0489C82.2387 61.7423 82.298 61.4379 82.4187 61.1558C82.5394 60.8738 82.7186 60.6204 82.9445 60.4125C83.4214 59.9938 84.1796 59.7892 85.2191 59.7892H87.9515V59.1516C87.9732 58.8432 87.9301 58.5336 87.825 58.2428C87.7199 57.9519 87.5551 57.6861 87.3412 57.4625C86.8564 57.0446 86.2253 56.8359 85.5863 56.882C85.065 56.8796 84.5477 56.9731 84.0604 57.158C83.611 57.3235 83.1968 57.5721 82.8396 57.8907L82.4677 57.334C82.884 56.9661 83.3706 56.6861 83.8983 56.5108C84.4589 56.3149 85.0496 56.2183 85.6436 56.2254H85.6531ZM85.2239 63.6718C85.8187 63.6853 86.4037 63.5195 86.9025 63.196C87.3831 62.8752 87.7514 62.4128 87.9563 61.8733V60.3792H85.2382C84.6373 60.329 84.0368 60.4797 83.5311 60.8074C83.3591 60.9487 83.2225 61.1281 83.1323 61.3313C83.0421 61.5345 83.0006 61.7559 83.0113 61.9779C83.0019 62.2149 83.0498 62.4506 83.1511 62.6651C83.2523 62.8797 83.404 63.0667 83.5931 63.2103C84.0682 63.5373 84.6379 63.6995 85.2144 63.6718H85.2239ZM106.849 56.2254C107.555 56.2149 108.25 56.394 108.862 56.744C109.458 57.0736 109.945 57.5697 110.264 58.1714C110.605 58.8134 110.783 59.5289 110.783 60.2555C110.783 60.9821 110.605 61.6976 110.264 62.3395C109.937 62.9354 109.452 63.4294 108.862 63.767C108.25 64.1163 107.555 64.2954 106.849 64.2856C106.17 64.2949 105.501 64.1207 104.913 63.7812C104.346 63.439 103.887 62.9443 103.588 62.3538V64.2285H102.853V52.9375H103.616V58.1001C103.917 57.5255 104.377 57.0498 104.942 56.7297C105.517 56.3921 106.173 56.2177 106.84 56.2254H106.849ZM106.802 63.61C107.38 63.618 107.95 63.4701 108.452 63.1817C108.936 62.8988 109.333 62.4869 109.596 61.9922C109.878 61.4565 110.025 60.8605 110.025 60.2555C110.025 59.6504 109.878 59.0544 109.596 58.5188C109.333 58.024 108.936 57.6122 108.452 57.3292C107.947 57.0484 107.379 56.901 106.802 56.901C106.224 56.901 105.656 57.0484 105.152 57.3292C104.671 57.6175 104.276 58.028 104.007 58.5188C103.726 59.0538 103.585 59.6513 103.597 60.2555C103.589 60.8592 103.73 61.4556 104.007 61.9922C104.276 62.4829 104.671 62.8935 105.152 63.1817C105.649 63.4676 106.214 63.6155 106.787 63.61H106.802ZM124.135 56.2872H124.908V64.2333H124.145L124.135 56.2872ZM124.517 54.3507C124.353 54.353 124.195 54.2935 124.074 54.1841C124.015 54.1267 123.968 54.0578 123.937 53.9817C123.906 53.9055 123.89 53.8238 123.892 53.7416C123.892 53.6596 123.907 53.5782 123.938 53.5022C123.969 53.4262 124.015 53.3572 124.074 53.2991C124.131 53.2398 124.2 53.193 124.276 53.1619C124.352 53.1307 124.435 53.1159 124.517 53.1183C124.599 53.1176 124.681 53.1332 124.757 53.1642C124.833 53.1953 124.902 53.2411 124.96 53.2991C125.02 53.3528 125.068 53.4191 125.099 53.4931C125.13 53.5671 125.145 53.6471 125.142 53.7273C125.142 53.8094 125.127 53.8907 125.095 53.9666C125.064 54.0425 125.018 54.1115 124.96 54.1695C124.902 54.2275 124.833 54.2734 124.757 54.3045C124.681 54.3356 124.599 54.3513 124.517 54.3507ZM143.029 63.7289C142.817 63.9214 142.566 64.0673 142.294 64.1571C142.003 64.2491 141.699 64.2957 141.393 64.2951C141.102 64.3141 140.81 64.2742 140.534 64.1777C140.259 64.0812 140.006 63.9302 139.791 63.7337C139.595 63.5177 139.445 63.2652 139.348 62.9907C139.252 62.7162 139.211 62.4253 139.228 62.1349V56.9438H137.783V56.2872H139.247V54.5505H140.01V56.2872H142.552V56.9438H140.02V62.0588C139.994 62.4866 140.124 62.9093 140.387 63.2483C140.535 63.3881 140.711 63.4954 140.903 63.5634C141.095 63.6314 141.299 63.6586 141.503 63.6433C141.956 63.6602 142.399 63.5016 142.738 63.2008L143.029 63.7289ZM158.827 56.2254C159.656 56.1695 160.474 56.4432 161.102 56.9867C161.381 57.2788 161.596 57.6263 161.732 58.0066C161.869 58.387 161.923 58.7916 161.893 59.1944V64.2333H161.159V62.8058C160.905 63.274 160.516 63.6552 160.043 63.9002C159.497 64.1664 158.895 64.297 158.288 64.2809C157.535 64.3211 156.79 64.101 156.18 63.6575C155.947 63.4584 155.758 63.212 155.626 62.9348C155.495 62.6575 155.424 62.3556 155.418 62.0489C155.412 61.7423 155.472 61.4379 155.592 61.1558C155.713 60.8738 155.892 60.6204 156.118 60.4125C156.595 59.9938 157.353 59.7892 158.393 59.7892H161.149V59.1516C161.171 58.8432 161.128 58.5336 161.023 58.2428C160.917 57.9519 160.753 57.6861 160.539 57.4625C160.054 57.0446 159.423 56.8359 158.784 56.882C158.263 56.8796 157.745 56.9731 157.258 57.158C156.809 57.3235 156.394 57.5721 156.037 57.8907L155.656 57.3435C156.072 56.9756 156.559 56.6956 157.086 56.5204C157.65 56.3205 158.243 56.2207 158.841 56.2254H158.827ZM158.402 63.6718C158.997 63.6853 159.582 63.5195 160.081 63.196C160.562 62.8752 160.93 62.4128 161.135 61.8733V60.3792H158.417C157.816 60.329 157.215 60.4797 156.71 60.8074C156.538 60.9487 156.401 61.1281 156.311 61.3313C156.221 61.5345 156.179 61.7559 156.19 61.9779C156.182 62.2147 156.23 62.45 156.331 62.6644C156.432 62.8787 156.583 63.0659 156.772 63.2103C157.253 63.5431 157.832 63.7056 158.417 63.6718H158.402ZM179.98 63.7289C179.768 63.9204 179.518 64.0662 179.246 64.1571C178.954 64.2491 178.65 64.2957 178.345 64.2951C178.053 64.3141 177.761 64.2742 177.486 64.1777C177.211 64.0812 176.958 63.9302 176.742 63.7337C176.547 63.5177 176.397 63.2652 176.3 62.9907C176.204 62.7162 176.163 62.4253 176.18 62.1349V56.9438H174.716V56.2872H176.18V54.5505H176.943V56.2872H179.475V56.9438H176.943V62.0588C176.915 62.4869 177.045 62.9103 177.31 63.2483C177.458 63.3878 177.634 63.495 177.826 63.563C178.018 63.631 178.222 63.6583 178.426 63.6433C178.88 63.6585 179.324 63.5002 179.666 63.2008L179.98 63.7289ZM193.099 56.2872H193.862V64.2333H193.099V56.2872ZM193.48 54.3507C193.318 54.3522 193.161 54.2928 193.041 54.1841C192.981 54.1277 192.933 54.059 192.901 53.9828C192.869 53.9065 192.853 53.8243 192.855 53.7416C192.856 53.6593 192.872 53.5777 192.904 53.5018C192.936 53.4258 192.983 53.3569 193.041 53.2991C193.098 53.2404 193.166 53.194 193.242 53.1629C193.317 53.1317 193.398 53.1166 193.48 53.1183C193.562 53.1176 193.644 53.1332 193.72 53.1642C193.796 53.1953 193.865 53.2411 193.924 53.2991C193.983 53.3528 194.031 53.4191 194.062 53.4931C194.093 53.5671 194.108 53.6471 194.105 53.7273C194.105 53.8094 194.09 53.8907 194.059 53.9666C194.027 54.0425 193.981 54.1115 193.923 54.1695C193.865 54.2275 193.796 54.2734 193.72 54.3045C193.644 54.3356 193.562 54.3513 193.48 54.3507ZM211.176 64.2951C210.462 64.3061 209.757 64.1271 209.135 63.7765C208.536 63.4411 208.041 62.9472 207.705 62.3491C207.351 61.7118 207.17 60.9934 207.18 60.265C207.167 59.5407 207.348 58.8261 207.705 58.1952C208.04 57.5964 208.535 57.1022 209.135 56.7678C209.759 56.4204 210.462 56.2416 211.176 56.2491C211.888 56.2376 212.589 56.4167 213.208 56.7678C213.807 57.1028 214.303 57.5968 214.638 58.1952C214.98 58.8345 215.158 59.5477 215.158 60.2721C215.158 60.9965 214.98 61.7098 214.638 62.3491C214.303 62.9476 213.808 63.4417 213.208 63.7765C212.592 64.1259 211.894 64.305 211.186 64.2951H211.176ZM211.176 63.61C211.749 63.6206 212.314 63.4724 212.807 63.1817C213.292 62.8988 213.688 62.4869 213.952 61.9922C214.245 61.4609 214.395 60.8622 214.386 60.2555C214.397 59.6486 214.247 59.0494 213.952 58.5188C213.688 58.024 213.292 57.6122 212.807 57.3292C212.313 57.0393 211.749 56.8911 211.176 56.901C210.598 56.893 210.028 57.0409 209.526 57.3292C209.046 57.6175 208.651 58.028 208.382 58.5188C208.1 59.0538 207.959 59.6513 207.972 60.2555C207.962 60.8594 208.103 61.4564 208.382 61.9922C208.651 62.4829 209.046 62.8935 209.526 63.1817C210.03 63.4717 210.604 63.6197 211.186 63.61H211.176ZM232.411 56.2254C232.846 56.201 233.282 56.2652 233.692 56.414C234.102 56.5629 234.477 56.7933 234.795 57.0913C235.1 57.4285 235.334 57.8234 235.483 58.2525C235.632 58.6816 235.693 59.1362 235.663 59.5893V64.2333H234.9V59.6512C234.926 59.2826 234.879 58.9125 234.761 58.5622C234.643 58.2118 234.457 57.8882 234.213 57.61C233.962 57.3666 233.663 57.1785 233.334 57.058C233.005 56.9375 232.655 56.8873 232.306 56.9105C231.899 56.8894 231.492 56.9529 231.111 57.0971C230.73 57.2412 230.384 57.4629 230.093 57.748C229.815 58.0518 229.601 58.4075 229.462 58.7947C229.322 59.1818 229.262 59.5926 229.283 60.0033V64.238H228.52V56.292H229.254V58.0144C229.521 57.4664 229.946 57.0106 230.475 56.7059C231.067 56.3718 231.74 56.2056 232.42 56.2254H232.411Z" fill="black"></path>
<path d="M75.2814 36.6301C72.2201 36.6673 69.1984 35.9377 66.4929 34.508C63.9553 33.1302 61.8368 31.0953 60.3605 28.6174C58.8791 26.056 58.1179 23.1431 58.1574 20.1861C58.1147 17.217 58.8917 14.2934 60.4034 11.7356C61.873 9.26506 63.9921 7.24281 66.5311 5.88791C69.2312 4.4373 72.2579 3.69866 75.3243 3.74199C77.7878 3.71098 80.2321 4.17709 82.5106 5.11233C84.6289 5.98792 86.5109 7.34901 88.0039 9.08536L84.1605 12.692C83.0881 11.4897 81.7681 10.5327 80.2908 9.88637C78.8135 9.24008 77.2137 8.91977 75.6009 8.94738C73.539 8.91217 71.5039 9.41576 69.6974 10.4081C67.9892 11.3196 66.5767 12.6977 65.625 14.3811C64.6642 16.1641 64.1613 18.1569 64.1613 20.1813C64.1613 22.2057 64.6642 24.1985 65.625 25.9815C66.5867 27.6693 67.9957 29.0604 69.6974 30.0021C71.5129 30.9676 73.5438 31.4586 75.6009 31.4295C77.219 31.4526 78.8227 31.1241 80.3008 30.4668C81.7788 29.8094 83.0959 28.8391 84.1605 27.623L88.0039 31.2772C86.5024 33.0201 84.6084 34.3833 82.4772 35.255C80.1974 36.1975 77.7488 36.6654 75.2814 36.6301ZM103.254 36.4921C100.929 36.5254 98.6339 35.9757 96.5779 34.8934C94.6427 33.8737 93.0273 32.3408 91.9094 30.4636C90.795 28.4852 90.2257 26.2475 90.2595 23.9783C90.2204 21.722 90.7903 19.4968 91.9094 17.5358C93.0273 15.6586 94.6427 14.1257 96.5779 13.106C98.6567 12.055 100.954 11.5074 103.285 11.5074C105.615 11.5074 107.913 12.055 109.992 13.106C111.921 14.1191 113.524 15.6545 114.617 17.5358C115.764 19.4875 116.349 21.7164 116.31 23.9783C116.346 26.2532 115.761 28.495 114.617 30.4636C113.525 32.346 111.922 33.8818 109.992 34.8934C107.916 35.9831 105.599 36.533 103.254 36.4921ZM103.254 31.6055C104.222 31.6356 105.186 31.4641 106.084 31.102C106.982 30.74 107.795 30.1952 108.471 29.5025C109.844 28.1036 110.531 26.2606 110.531 23.9735C110.531 21.6865 109.844 19.8435 108.471 18.4446C107.071 17.0956 105.2 16.3417 103.254 16.3417C101.308 16.3417 99.4372 17.0956 98.037 18.4446C96.6923 19.8435 96.0215 21.6865 96.0247 23.9735C96.0279 26.2606 96.6987 28.1036 98.037 29.5025C98.7128 30.195 99.5256 30.7396 100.424 31.1016C101.322 31.4637 102.286 31.6353 103.254 31.6055ZM145.694 2.28125V36.1733H140.225V33.0235C139.289 34.1739 138.077 35.0692 136.701 35.6262C135.249 36.2202 133.692 36.5148 132.123 36.4921C129.905 36.5242 127.715 35.9902 125.762 34.941C123.914 33.9178 122.39 32.3979 121.365 30.554C120.273 28.5362 119.721 26.2713 119.763 23.9783C119.716 21.6985 120.269 19.4463 121.365 17.4454C122.389 15.6004 123.912 14.0801 125.762 13.0584C127.714 12.008 129.904 11.474 132.123 11.5072C133.642 11.4895 135.151 11.7691 136.562 12.3304C137.889 12.865 139.066 13.7104 139.996 14.7951V2.28125H145.694ZM132.805 31.6055C134.1 31.6248 135.377 31.3102 136.515 30.692C137.616 30.0509 138.518 29.119 139.123 27.9989C139.756 26.7529 140.087 25.3754 140.087 23.9783C140.087 22.5811 139.756 21.2037 139.123 19.9577C138.525 18.8438 137.62 17.9241 136.515 17.3074C135.38 16.6774 134.103 16.3468 132.805 16.3468C131.506 16.3468 130.229 16.6774 129.095 17.3074C127.989 17.9241 127.084 18.8438 126.486 19.9577C125.853 21.2037 125.523 22.5811 125.523 23.9783C125.523 25.3754 125.853 26.7529 126.486 27.9989C127.091 29.119 127.994 30.0509 129.095 30.692C130.232 31.3102 131.51 31.6248 132.805 31.6055ZM162.542 11.5072C166.143 11.5072 168.89 12.3748 170.782 14.1099C172.673 15.8451 173.635 18.4335 173.667 21.8752V36.1733H168.264V33.2043C167.522 34.3055 166.47 35.1631 165.241 35.669C162.177 36.7957 158.806 36.7636 155.765 35.5786C154.483 35.0136 153.376 34.1146 152.561 32.9759C151.825 31.8438 151.443 30.5187 151.464 29.1694C151.431 28.1685 151.634 27.1739 152.055 26.2651C152.477 25.3563 153.106 24.5585 153.891 23.9355C155.541 22.5937 158.119 21.9244 161.626 21.9275H167.944V21.5612C167.944 19.8577 167.425 18.5445 166.39 17.6309C165.355 16.7174 163.872 16.2606 161.86 16.2606C160.477 16.2627 159.104 16.4777 157.787 16.8982C156.571 17.2743 155.438 17.8782 154.449 18.6777L152.208 14.5191C153.596 13.4912 155.165 12.7325 156.834 12.2828C158.69 11.7584 160.612 11.4973 162.542 11.5072ZM161.764 32.3383C163.099 32.3711 164.417 32.0422 165.579 31.3867C166.686 30.7452 167.531 29.7341 167.963 28.5318V25.7007H162.041C158.747 25.7007 157.099 26.7824 157.096 28.9458C157.081 29.4265 157.186 29.9035 157.402 30.3337C157.617 30.7639 157.936 31.1339 158.331 31.4105C159.345 32.0805 160.55 32.4059 161.764 32.3383ZM205.506 11.7832V32.4763C205.506 41.0631 201.111 45.3565 192.321 45.3565C190.064 45.3679 187.816 45.0604 185.645 44.443C183.745 43.9657 181.967 43.0934 180.428 41.8831L182.994 37.6008C184.19 38.5523 185.558 39.2662 187.023 39.7039C188.631 40.2447 190.315 40.5227 192.011 40.527C194.698 40.527 196.665 39.918 197.915 38.6999C199.164 37.4818 199.787 35.6214 199.784 33.1186V31.8387C198.798 32.9121 197.576 33.7413 196.212 34.2606C194.736 34.8217 193.167 35.101 191.587 35.0837C189.393 35.1137 187.225 34.6125 185.269 33.623C183.437 32.6459 181.904 31.1945 180.829 29.4216C179.738 27.5447 179.184 25.4053 179.227 23.236C179.183 21.0877 179.738 18.9695 180.829 17.1171C181.896 15.3487 183.433 13.9094 185.269 12.9585C187.225 11.9685 189.393 11.4672 191.587 11.4977C193.23 11.4755 194.862 11.7695 196.394 12.3637C197.823 12.9176 199.084 13.8305 200.056 15.014V11.7689H205.506V11.7832ZM192.45 30.2257C194.402 30.3081 196.309 29.625 197.762 28.3224C198.457 27.6769 199.005 26.89 199.369 26.0149C199.732 25.1398 199.903 24.197 199.87 23.2503C199.904 22.3175 199.733 21.3886 199.369 20.5288C199.005 19.669 198.456 18.8991 197.762 18.2733C196.309 16.9699 194.402 16.2866 192.45 16.37C190.471 16.2875 188.536 16.9691 187.047 18.2733C186.371 18.9088 185.838 19.6812 185.486 20.5387C185.133 21.3963 184.968 22.3191 185.002 23.2455C184.966 24.1877 185.13 25.1266 185.482 26.0014C185.835 26.8761 186.368 27.667 187.047 28.3224C188.535 29.6275 190.471 30.3092 192.45 30.2257ZM235.997 24.1068C235.997 24.5017 235.968 25.0584 235.906 25.7959H216.732C217.018 27.5034 217.95 29.0363 219.335 30.0782C221.163 31.2563 223.334 31.7882 225.501 31.5889C227.667 31.3897 229.704 30.4707 231.285 28.9791L234.352 32.4953C233.234 33.8189 231.801 34.84 230.184 35.4644C228.126 36.2184 225.938 36.5558 223.748 36.4569C221.558 36.3581 219.409 35.8249 217.428 34.8886C215.45 33.8925 213.796 32.3563 212.659 30.4588C211.585 28.4832 211.018 26.2725 211.01 24.0247C211.001 21.7769 211.552 19.5621 212.612 17.5786C213.675 15.6945 215.243 14.1439 217.142 13.1012C219.13 12.0204 221.363 11.4698 223.627 11.5025C225.855 11.4599 228.054 12.0101 229.998 13.0965C231.868 14.1102 233.397 15.6509 234.394 17.5263C235.495 19.5461 236.047 21.8178 235.997 24.1163V24.1068ZM223.627 16.075C221.921 16.0304 220.258 16.6168 218.959 17.7214C217.693 18.8187 216.878 20.3436 216.67 22.0037H230.546C230.361 20.3241 229.544 18.7774 228.259 17.6767C226.975 16.5759 225.319 16.0034 223.627 16.075Z" fill="black"></path>
<path d="M33.2608 27.835V8.16494H8.17335V57.5638H33.2608V37.8271L41.7155 35.9238V66.1379H0V0H41.7155V25.9318L33.2608 27.835Z" fill="black"></path>
</svg>
