<svg width="31" height="31" viewBox="0 0 31 31" fill="none" xmlns="http://www.w3.org/2000/svg">
<path fill-rule="evenodd" clip-rule="evenodd" d="M15.4408 30.3021L15.4547 30.3022H15.4499L15.4408 30.3021ZM15.5501 30.3022H15.5453L15.5592 30.3021L15.5501 30.3022ZM15.3934 30.3019L15.4084 30.302H15.3998L15.3934 30.3019ZM15.6002 30.302H15.5916L15.6066 30.3019L15.6002 30.302ZM15.3478 30.3015L15.3578 30.3016L15.3498 30.3015H15.3478ZM15.6502 30.3015L15.6422 30.3016L15.6522 30.3015H15.6502ZM15.7002 30.301L15.6967 30.3011L15.7102 30.3009L15.7002 30.301ZM15.2898 30.3009L15.3033 30.3011L15.2998 30.301L15.2898 30.3009ZM15.7502 30.3003L15.742 30.3004L15.7587 30.3002L15.7502 30.3003ZM15.2413 30.3002L15.258 30.3004L15.2498 30.3003L15.2413 30.3002ZM15.8001 30.2995L15.7891 30.2997L15.8044 30.2994L15.8001 30.2995ZM15.1956 30.2994L15.2109 30.2997L15.1999 30.2995L15.1956 30.2994ZM15.1388 30.2983L15.1525 30.2986L15.15 30.2985L15.1388 30.2983ZM15.85 30.2985L15.8475 30.2986L15.8612 30.2983L15.85 30.2985ZM15.0891 30.297L15.1078 30.2975L15.1002 30.2973L15.0891 30.297ZM15.8998 30.2973L15.8922 30.2975L15.9109 30.297L15.8998 30.2973ZM15.9496 30.296L15.9375 30.2964L15.9566 30.2959L15.9496 30.296ZM15.0434 30.2959L15.0625 30.2964L15.0504 30.296L15.0434 30.2959ZM14.9998 30.2946L15.0134 30.295L15.0006 30.2946L14.9889 30.2942L14.9998 30.2946ZM15.9994 30.2946L15.9866 30.295L16.0002 30.2946L16.0111 30.2942L15.9994 30.2946ZM16.0491 30.293L16.0423 30.2932L16.0632 30.2925L16.0491 30.293ZM14.9368 30.2925L14.9577 30.2932L14.9509 30.293L14.9368 30.2925ZM14.8914 30.2909L14.9134 30.2916L14.9012 30.2912L14.8914 30.2909ZM16.0988 30.2912L16.0866 30.2916L16.1086 30.2909L16.0988 30.2912ZM14.8469 30.2891L14.8684 30.29L14.8516 30.2894L14.8469 30.2891ZM16.1484 30.2894L16.1316 30.29L16.1531 30.2891L16.1484 30.2894ZM14.7846 30.2865L14.8076 30.2875L14.802 30.2873L14.7846 30.2865ZM16.198 30.2873L16.1924 30.2875L16.2154 30.2865L16.198 30.2873ZM14.7398 30.2845L14.7637 30.2855L14.7524 30.2851L14.7398 30.2845ZM16.2476 30.2851L16.2363 30.2855L16.2602 30.2845L16.2476 30.2851ZM14.6958 30.2823L14.7198 30.2835L14.7029 30.2827L14.6958 30.2823ZM16.2971 30.2827L16.2802 30.2835L16.3042 30.2823L16.2971 30.2827ZM16.3466 30.2802L16.3247 30.2813L16.3441 30.2803L16.367 30.2791L16.3466 30.2802ZM14.6559 30.2803L14.6753 30.2813L14.6534 30.2802L14.633 30.2791L14.6559 30.2803ZM16.396 30.2775L16.3863 30.278L16.4109 30.2767L16.396 30.2775ZM14.5891 30.2767L14.6137 30.278L14.604 30.2775L14.5891 30.2767ZM14.5454 30.2742L14.5699 30.2756L14.5546 30.2748L14.5454 30.2742ZM16.4454 30.2748L16.4301 30.2756L16.4546 30.2742L16.4454 30.2748ZM14.5036 30.2717L14.5257 30.273L14.5052 30.2718L14.4844 30.2705L14.5036 30.2717ZM16.4948 30.2718L16.4743 30.273L16.4964 30.2717L16.5156 30.2705L16.4948 30.2718ZM16.5441 30.2687L16.5367 30.2691L16.5602 30.2676L16.5441 30.2687ZM14.4398 30.2676L14.4633 30.2691L14.4559 30.2687L14.4398 30.2676ZM14.3962 30.2647L14.4192 30.2663L14.4066 30.2654L14.3962 30.2647ZM16.5934 30.2654L16.5808 30.2663L16.6038 30.2647L16.5934 30.2654ZM14.3526 30.2617L14.3738 30.2632L14.3574 30.2621L14.3526 30.2617ZM16.6426 30.2621L16.6262 30.2632L16.6474 30.2617L16.6426 30.2621ZM14.2941 30.2574L14.3126 30.2588L14.3081 30.2585L14.2941 30.2574ZM16.6919 30.2585L16.6874 30.2588L16.7059 30.2574L16.6919 30.2585ZM16.741 30.2548L16.7321 30.2554L16.751 30.254L16.741 30.2548ZM14.249 30.254L14.2679 30.2554L14.259 30.2548L14.249 30.254ZM14.2051 30.2505L14.2211 30.2518L14.2099 30.2509L14.2051 30.2505ZM16.7901 30.2509L16.7789 30.2518L16.7949 30.2505L16.7901 30.2509ZM14.1568 30.2466L14.1616 30.247L14.1608 30.2469L14.1568 30.2466ZM16.8392 30.2469L16.8384 30.247L16.8432 30.2466L16.8392 30.2469ZM16.8882 30.2428L16.8839 30.2431L16.8948 30.2422L16.8882 30.2428ZM14.1052 30.2422L14.1161 30.2431L14.1118 30.2428L14.1052 30.2422ZM14.0598 30.2382L14.0679 30.239L14.0629 30.2385L14.0598 30.2382ZM16.9371 30.2385L16.9321 30.239L16.9402 30.2382L16.9371 30.2385ZM13.0781 30.1198C5.67209 28.9933 0 22.7837 0 15.3022C0 7.02354 6.94533 0.302246 15.5 0.302246C24.0547 0.302246 31 7.02354 31 15.3022C31 22.7837 25.3279 28.9933 17.9219 30.1198V19.6382H21.5335L22.2207 15.3022H17.9219V12.4885C17.9219 11.3023 18.5224 10.146 20.4478 10.146H22.4023V6.45459C22.4023 6.45459 20.6286 6.16162 18.9327 6.16162C15.3922 6.16162 13.0781 8.23818 13.0781 11.9976V15.3022H9.14258V19.6382H13.0781V30.1198Z" fill="black"/>
</svg>
