<svg width="21" height="21" viewBox="0 0 21 21" fill="none" xmlns="http://www.w3.org/2000/svg">
<g clip-path="url(#clip0_63_43)">
<path fill-rule="evenodd" clip-rule="evenodd" d="M0.166016 10.7227C0.166016 15.6944 3.77685 19.8285 8.49935 20.6669V13.4444H5.99935V10.6669H8.49935V8.44437C8.49935 5.94437 10.1102 4.55604 12.3885 4.55604C13.1102 4.55604 13.8885 4.66687 14.6102 4.7777V7.33354H13.3327C12.1102 7.33354 11.8327 7.94437 11.8327 8.7227V10.6669H14.4993L14.0552 13.4444H11.8327V20.6669C16.5552 19.8285 20.166 15.6952 20.166 10.7227C20.166 5.19187 15.666 0.66687 10.166 0.66687C4.66602 0.66687 0.166016 5.19187 0.166016 10.7227Z" fill="white"/>
</g>
<defs>
<clipPath id="clip0_63_43">
<rect width="20" height="20" fill="white" transform="translate(0.166992 0.666748)"/>
</clipPath>
</defs>
</svg>
