<svg width="28" height="27" viewBox="0 0 28 27" fill="none" xmlns="http://www.w3.org/2000/svg">
<path d="M9.72233 3.66647H10.8334C8.66677 10.1554 8.66677 17.1776 10.8334 23.6665H9.72233M17.5001 3.66647C19.6668 10.1554 19.6668 17.1776 17.5001 23.6665M4.16678 18.1109V16.9998C10.6557 19.1665 17.6779 19.1665 24.1668 16.9998V18.1109M4.16678 10.3331C10.6557 8.16647 17.6779 8.16647 24.1668 10.3331M25.2779 13.6665C25.2779 19.803 20.3033 24.7776 14.1668 24.7776C8.03028 24.7776 3.05566 19.803 3.05566 13.6665C3.05566 7.52997 8.03028 2.55536 14.1668 2.55536C20.3033 2.55536 25.2779 7.52997 25.2779 13.6665Z" stroke="#232E52" stroke-width="1.66667" stroke-linecap="round" stroke-linejoin="round"/>
</svg>
