<svg width="31" height="31" viewBox="0 0 31 31" fill="none" xmlns="http://www.w3.org/2000/svg">
<path fill-rule="evenodd" clip-rule="evenodd" d="M15.5 0.302246C24.0547 0.302246 31 7.02354 31 15.3022C31 23.581 24.0547 30.3022 15.5 30.3022C6.94533 30.3022 0 23.581 0 15.3022C0 7.02354 6.94533 0.302246 15.5 0.302246ZM15.5 5.92725C12.8691 5.92725 12.5391 5.93803 11.5058 5.98367C10.4747 6.0292 9.77051 6.1877 9.15426 6.41943C8.51725 6.65902 7.97699 6.97959 7.43843 7.50078C6.89986 8.02197 6.56861 8.5448 6.32103 9.16127C6.08157 9.75758 5.91785 10.4391 5.87075 11.4369C5.82364 12.4369 5.8125 12.7562 5.8125 15.3022C5.8125 17.8483 5.82364 18.1676 5.87075 19.1676C5.91785 20.1654 6.08157 20.8469 6.32103 21.4432C6.56861 22.0597 6.89986 22.5825 7.43843 23.1038C7.97699 23.625 8.51725 23.9455 9.15426 24.1851C9.77051 24.4168 10.4747 24.5753 11.5058 24.6208C12.5391 24.6665 12.8691 24.6772 15.5 24.6772C18.1309 24.6772 18.4609 24.6665 19.4942 24.6208C20.5253 24.5753 21.2295 24.4168 21.8457 24.1851C22.4827 23.9455 23.0229 23.625 23.5616 23.1038C24.1001 22.5825 24.4314 22.0597 24.679 21.4432C24.9184 20.8469 25.0821 20.1654 25.1292 19.1676C25.1764 18.1676 25.1875 17.8483 25.1875 15.3022C25.1875 12.7562 25.1764 12.4369 25.1292 11.4369C25.0821 10.4391 24.9184 9.75758 24.679 9.16127C24.4314 8.5448 24.1001 8.02197 23.5616 7.50078C23.0229 6.97959 22.4827 6.65902 21.8457 6.41943C21.2295 6.1877 20.5253 6.0292 19.4942 5.98367C18.4609 5.93803 18.1309 5.92725 15.5 5.92725ZM15.5 7.61645C18.0867 7.61645 18.3931 7.626 19.4146 7.67111C20.3591 7.71283 20.872 7.86553 21.2134 7.99391C21.6656 8.16395 21.9883 8.36715 22.3273 8.69522C22.6663 9.02322 22.8762 9.33559 23.052 9.77316C23.1846 10.1035 23.3425 10.5999 23.3855 11.5139C23.4321 12.5025 23.442 12.799 23.442 15.3022C23.442 17.8055 23.4321 18.102 23.3855 19.0906C23.3425 20.0046 23.1846 20.501 23.052 20.8313C22.8762 21.269 22.6663 21.5813 22.3273 21.9093C21.9883 22.2374 21.6656 22.4405 21.2134 22.6106C20.872 22.739 20.3591 22.8917 19.4146 22.9334C18.3932 22.9785 18.0869 22.988 15.5 22.988C12.9131 22.988 12.6068 22.9785 11.5854 22.9334C10.6409 22.8917 10.128 22.739 9.78661 22.6106C9.33439 22.4405 9.01168 22.2374 8.67267 21.9093C8.33367 21.5813 8.12376 21.269 7.94805 20.8313C7.81539 20.501 7.65755 20.0046 7.61444 19.0906C7.56781 18.102 7.55801 17.8055 7.55801 15.3022C7.55801 12.799 7.56781 12.5025 7.61444 11.5139C7.65755 10.5999 7.81539 10.1035 7.94805 9.77316C8.12376 9.33559 8.33367 9.02322 8.67267 8.69522C9.01168 8.36715 9.33439 8.16395 9.78661 7.99391C10.128 7.86553 10.6409 7.71283 11.5854 7.67111C12.6069 7.626 12.9133 7.61645 15.5 7.61645ZM15.5 10.4881C12.7526 10.4881 10.5253 12.6434 10.5253 15.3022C10.5253 17.9611 12.7526 20.1164 15.5 20.1164C18.2474 20.1164 20.4747 17.9611 20.4747 15.3022C20.4747 12.6434 18.2474 10.4881 15.5 10.4881ZM15.5 18.4272C13.7166 18.4272 12.2709 17.0281 12.2709 15.3022C12.2709 13.5764 13.7166 12.1773 15.5 12.1773C17.2834 12.1773 18.7291 13.5764 18.7291 15.3022C18.7291 17.0281 17.2834 18.4272 15.5 18.4272ZM21.8337 10.2979C21.8337 10.9192 21.3132 11.4228 20.6712 11.4228C20.0292 11.4228 19.5087 10.9192 19.5087 10.2979C19.5087 9.67654 20.0292 9.17287 20.6712 9.17287C21.3132 9.17287 21.8337 9.67654 21.8337 10.2979Z" fill="black"/>
</svg>
