<svg width="21" height="21" viewBox="0 0 21 21" fill="none" xmlns="http://www.w3.org/2000/svg">
<path fill-rule="evenodd" clip-rule="evenodd" d="M1.66602 3.03179C1.66602 2.62557 1.82739 2.23598 2.11463 1.94874C2.40187 1.6615 2.79146 1.50012 3.19768 1.50012H18.466C18.6673 1.4998 18.8667 1.53918 19.0528 1.61601C19.2389 1.69285 19.408 1.80563 19.5504 1.9479C19.6928 2.09018 19.8058 2.25914 19.8828 2.44513C19.9599 2.63112 19.9995 2.83048 19.9993 3.03179V18.3001C19.9996 18.5015 19.9601 18.7009 19.8832 18.887C19.8062 19.073 19.6934 19.2421 19.551 19.3845C19.4087 19.527 19.2397 19.6399 19.0536 19.7169C18.8676 19.794 18.6682 19.8336 18.4668 19.8335H3.19768C2.99647 19.8335 2.79723 19.7938 2.61135 19.7168C2.42546 19.6398 2.25658 19.5269 2.11434 19.3845C1.9721 19.2422 1.85929 19.0733 1.78237 18.8874C1.70544 18.7014 1.66591 18.5022 1.66602 18.301V3.03179ZM8.92268 8.49012H11.4052V9.73679C11.7635 9.02012 12.6802 8.37512 14.0577 8.37512C16.6985 8.37512 17.3244 9.80262 17.3244 12.4218V17.2735H14.6518V13.0185C14.6518 11.5268 14.2935 10.6851 13.3835 10.6851C12.121 10.6851 11.596 11.5926 11.596 13.0185V17.2735H8.92268V8.49012ZM4.33935 17.1593H7.01268V8.37512H4.33935V17.1585V17.1593ZM7.39518 5.51012C7.40022 5.73902 7.35949 5.96661 7.27538 6.17955C7.19127 6.39249 7.06548 6.58649 6.90538 6.75015C6.74528 6.91382 6.5541 7.04385 6.34306 7.13263C6.13203 7.22141 5.90538 7.26714 5.67643 7.26714C5.44748 7.26714 5.22084 7.22141 5.0098 7.13263C4.79877 7.04385 4.60759 6.91382 4.44749 6.75015C4.28739 6.58649 4.16159 6.39249 4.07748 6.17955C3.99337 5.96661 3.95264 5.73902 3.95768 5.51012C3.96758 5.06084 4.153 4.63328 4.47425 4.31903C4.7955 4.00478 5.22704 3.82881 5.67643 3.82881C6.12583 3.82881 6.55736 4.00478 6.87861 4.31903C7.19986 4.63328 7.38529 5.06084 7.39518 5.51012V5.51012Z" fill="white"/>
</svg>
