<svg width="373" height="160" viewBox="0 0 373 160" fill="none" xmlns="http://www.w3.org/2000/svg">
<path d="M125.26 128.3V131.991H106.738V128.3H125.26ZM107.443 113.586V147.81H102.906V113.586H107.443ZM129.209 113.586V147.81H124.696V113.586H129.209ZM150.364 116.618L139.034 147.81H134.404L147.449 113.586H150.434L150.364 116.618ZM159.86 147.81L148.507 116.618L148.436 113.586H151.421L164.514 147.81H159.86ZM159.272 135.141V138.854H140.045V135.141H159.272ZM181.297 131.803H172.623L172.576 128.159H180.451C181.751 128.159 182.888 127.94 183.859 127.501C184.831 127.063 185.583 126.436 186.116 125.621C186.664 124.79 186.938 123.803 186.938 122.659C186.938 121.406 186.695 120.387 186.21 119.603C185.74 118.804 185.011 118.224 184.024 117.864C183.052 117.488 181.814 117.3 180.31 117.3H173.634V147.81H169.098V113.586H180.31C182.065 113.586 183.632 113.766 185.011 114.127C186.39 114.471 187.557 115.02 188.513 115.772C189.485 116.509 190.221 117.449 190.723 118.593C191.224 119.737 191.475 121.108 191.475 122.706C191.475 124.116 191.114 125.394 190.394 126.538C189.673 127.666 188.67 128.59 187.385 129.311C186.116 130.032 184.627 130.494 182.919 130.698L181.297 131.803ZM181.085 147.81H170.837L173.399 144.12H181.085C182.527 144.12 183.749 143.869 184.752 143.367C185.771 142.866 186.547 142.161 187.079 141.252C187.612 140.327 187.879 139.238 187.879 137.985C187.879 136.715 187.651 135.619 187.197 134.694C186.742 133.769 186.029 133.056 185.058 132.555C184.086 132.054 182.833 131.803 181.297 131.803H174.833L174.88 128.159H183.718L184.682 129.476C186.327 129.617 187.722 130.087 188.866 130.886C190.01 131.67 190.879 132.672 191.475 133.895C192.086 135.117 192.392 136.465 192.392 137.938C192.392 140.069 191.921 141.871 190.981 143.344C190.057 144.801 188.748 145.914 187.056 146.682C185.363 147.434 183.373 147.81 181.085 147.81ZM203.956 113.586V147.81H199.42V113.586H203.956ZM224.147 113.586V147.81H219.681V113.586H224.147ZM235.148 113.586V117.3H208.704V113.586H235.148ZM251.014 116.618L239.685 147.81H235.054L248.1 113.586H251.085L251.014 116.618ZM260.511 147.81L249.157 116.618L249.087 113.586H252.072L265.165 147.81H260.511ZM259.923 135.141V138.854H240.695V135.141H259.923ZM279.338 113.586V147.81H274.872V113.586H279.338ZM290.339 113.586V117.3H263.895V113.586H290.339ZM300.282 113.586V147.81H295.745V113.586H300.282ZM334.882 129.617V131.779C334.882 134.349 334.561 136.653 333.918 138.69C333.276 140.727 332.351 142.459 331.145 143.885C329.938 145.311 328.488 146.4 326.796 147.152C325.119 147.904 323.239 148.28 321.155 148.28C319.133 148.28 317.276 147.904 315.584 147.152C313.907 146.4 312.45 145.311 311.212 143.885C309.99 142.459 309.042 140.727 308.368 138.69C307.694 136.653 307.357 134.349 307.357 131.779V129.617C307.357 127.047 307.686 124.751 308.344 122.73C309.018 120.693 309.966 118.961 311.188 117.535C312.411 116.093 313.86 114.996 315.537 114.244C317.229 113.492 319.086 113.116 321.108 113.116C323.192 113.116 325.072 113.492 326.749 114.244C328.441 114.996 329.891 116.093 331.098 117.535C332.32 118.961 333.252 120.693 333.895 122.73C334.553 124.751 334.882 127.047 334.882 129.617ZM330.392 131.779V129.57C330.392 127.533 330.181 125.731 329.758 124.163C329.35 122.596 328.747 121.28 327.948 120.215C327.149 119.149 326.169 118.342 325.01 117.794C323.866 117.245 322.565 116.971 321.108 116.971C319.697 116.971 318.42 117.245 317.276 117.794C316.148 118.342 315.176 119.149 314.362 120.215C313.562 121.28 312.943 122.596 312.505 124.163C312.066 125.731 311.847 127.533 311.847 129.57V131.779C311.847 133.832 312.066 135.65 312.505 137.233C312.943 138.8 313.57 140.124 314.385 141.205C315.216 142.271 316.195 143.078 317.323 143.626C318.467 144.175 319.744 144.449 321.155 144.449C322.628 144.449 323.936 144.175 325.08 143.626C326.224 143.078 327.188 142.271 327.971 141.205C328.77 140.124 329.374 138.8 329.781 137.233C330.189 135.65 330.392 133.832 330.392 131.779ZM368.001 113.586V147.81H363.441L346.212 121.413V147.81H341.675V113.586H346.212L363.512 140.053V113.586H368.001Z" fill="black"/>
<path d="M119.873 90.0444C119.873 89.4333 119.779 88.8848 119.591 88.399C119.418 87.8976 119.089 87.4431 118.604 87.0357C118.118 86.6126 117.436 86.1973 116.559 85.7899C115.681 85.3825 114.545 84.9594 113.15 84.5206C111.599 84.0192 110.126 83.455 108.731 82.8282C107.352 82.2014 106.13 81.4727 105.064 80.6422C104.015 79.796 103.184 78.8166 102.573 77.704C101.977 76.5914 101.68 75.2986 101.68 73.8256C101.68 72.3996 101.993 71.1068 102.62 69.9472C103.247 68.7719 104.124 67.769 105.252 66.9385C106.381 66.0923 107.713 65.442 109.248 64.9875C110.8 64.5331 112.5 64.3059 114.349 64.3059C116.872 64.3059 119.074 64.7603 120.954 65.6692C122.835 66.5781 124.292 67.8239 125.326 69.4066C126.376 70.9893 126.901 72.7992 126.901 74.8364H119.896C119.896 73.8334 119.685 72.9559 119.262 72.2037C118.854 71.4359 118.227 70.8326 117.381 70.3938C116.551 69.955 115.501 69.7357 114.232 69.7357C113.009 69.7357 111.991 69.9237 111.176 70.2998C110.361 70.6602 109.75 71.1538 109.342 71.7806C108.935 72.3918 108.731 73.0813 108.731 73.8491C108.731 74.4289 108.872 74.9539 109.154 75.424C109.452 75.8941 109.891 76.3329 110.471 76.7403C111.05 77.1477 111.763 77.5316 112.61 77.8921C113.456 78.2525 114.435 78.6051 115.548 78.9498C117.413 79.5139 119.05 80.1486 120.461 80.8538C121.887 81.5589 123.077 82.3503 124.033 83.2278C124.989 84.1054 125.71 85.1004 126.196 86.213C126.682 87.3256 126.925 88.5871 126.925 89.9974C126.925 91.4861 126.635 92.8181 126.055 93.9933C125.475 95.1686 124.637 96.1637 123.54 96.9785C122.443 97.7934 121.134 98.4124 119.614 98.8355C118.094 99.2586 116.394 99.4701 114.514 99.4701C112.821 99.4701 111.152 99.2507 109.507 98.812C107.862 98.3575 106.365 97.6759 105.017 96.767C103.685 95.8581 102.62 94.6985 101.821 93.2882C101.021 91.8778 100.622 90.2089 100.622 88.2815H107.697C107.697 89.3471 107.862 90.2481 108.191 90.9846C108.52 91.7211 108.982 92.3166 109.577 92.771C110.189 93.2255 110.909 93.5546 111.74 93.7583C112.586 93.962 113.511 94.0638 114.514 94.0638C115.736 94.0638 116.739 93.8915 117.522 93.5467C118.322 93.202 118.909 92.724 119.285 92.1129C119.677 91.5017 119.873 90.8123 119.873 90.0444ZM139.97 93.5702L146.787 64.776H150.595L151.464 69.5711L144.201 99H140.111L139.97 93.5702ZM136.468 64.776L142.109 93.5702L141.639 99H137.079L129.487 64.776H136.468ZM157.458 93.4527L163.029 64.776H170.01L162.441 99H157.881L157.458 93.4527ZM152.734 64.776L159.597 93.6878L159.409 99H155.319L148.009 69.5476L148.949 64.776H152.734Z" fill="black"/>
<path fill-rule="evenodd" clip-rule="evenodd" d="M90.5138 30.5L0 0V147.348H29V77H61V147.348H90.5138V30.5Z" fill="black"/>
</svg>
