<?xml version="1.0" ?><svg data-name="Layer 1" id="Layer_1" viewBox="0 0 512 512" xmlns="http://www.w3.org/2000/svg"><title/><path d="M251.049,144.44c-40.614,0-68.558,24.318-68.558,100.794s27.944,100.795,68.558,100.795a75.426,75.426,0,0,0,23.915-3.53c-9.359-20.726-17.709-32.714-31.27-40.523s-29.454-.685-29.454-.685l-5.616-10.822c14.932-11.645,32.466-13.837,43.426-13.837,30.695,0,47.259,18.479,56.719,33.774,6.961-15.45,10.838-36.692,10.838-65.172C319.607,168.758,291.664,144.44,251.049,144.44Z"/><path d="M256,0C114.615,0,0,114.615,0,256S114.615,512,256,512,512,397.385,512,256,397.385,0,256,0Zm88.384,402.667c-31.455,0-48.743-20.431-59.453-39.612a122.654,122.654,0,1,1,41.723-21.343c8.241,11.847,19.651,23.418,33.21,23.418,20.549,0,23.289-20.412,23.289-20.412h13.7C396.853,368.555,388.085,402.667,344.384,402.667Z"/></svg>