<svg width="21" height="21" viewBox="0 0 21 21" fill="none" xmlns="http://www.w3.org/2000/svg">
<g clip-path="url(#clip0_63_49)">
<path d="M20.5003 4.30646C19.7337 4.64108 18.91 4.86723 18.0454 4.96897C18.928 4.44825 19.6056 3.62368 19.9247 2.6412C19.0857 3.1313 18.1678 3.47661 17.2106 3.66221C16.4309 2.84452 15.3202 2.3335 14.0907 2.3335C11.7302 2.3335 9.81641 4.21737 9.81641 6.5409C9.81641 6.87071 9.85425 7.1918 9.92708 7.49982C6.37484 7.3243 3.22542 5.64927 1.11727 3.10368C0.74943 3.7251 0.538656 4.44793 0.538656 5.21892C0.538656 6.67869 1.29329 7.96647 2.4401 8.72103C1.76135 8.7001 1.09753 8.51964 0.504069 8.1947C0.503825 8.21232 0.503825 8.22995 0.503825 8.24765C0.503825 10.2862 1.97713 11.9868 3.93237 12.3733C3.30297 12.5418 2.64276 12.5665 2.0022 12.4454C2.54606 14.117 4.12459 15.3334 5.99487 15.3675C4.53206 16.4959 2.68905 17.1686 0.686605 17.1686C0.341553 17.1686 0.00138348 17.1486 -0.333008 17.1098C1.55851 18.3036 3.80518 19.0002 6.21891 19.0002C14.0808 19.0002 18.3799 12.5888 18.3799 7.02885C18.3799 6.84636 18.3758 6.66491 18.3675 6.4845C19.2043 5.88903 19.9265 5.15147 20.5003 4.30646Z" fill="white"/>
</g>
<defs>
<clipPath id="clip0_63_49">
<rect width="20" height="20" fill="white" transform="translate(0.5 0.666748)"/>
</clipPath>
</defs>
</svg>
