<svg width="31" height="31" viewBox="0 0 31 31" fill="none" xmlns="http://www.w3.org/2000/svg">
<path d="M15.6417 7.33289C11.4305 7.33289 8.00552 10.7575 8.00391 14.9669C8.00329 16.4095 8.40697 17.8144 9.17116 19.0299L9.35274 19.3188L8.58147 22.136L11.471 21.378L11.7498 21.5435C12.922 22.239 14.2657 22.6071 15.6356 22.6077H15.6387C19.8467 22.6077 23.2716 19.1827 23.2732 14.973C23.274 12.933 22.4807 11.0149 21.0393 9.57175C19.5979 8.12876 17.6809 7.33351 15.6417 7.33289ZM20.1324 18.2494C19.9412 18.7855 19.0242 19.2748 18.5832 19.3406C18.1877 19.3998 17.6874 19.4244 17.1376 19.2497C16.8043 19.144 16.3768 19.0027 15.8292 18.7663C13.5268 17.7721 12.0231 15.4539 11.9084 15.3007C11.7937 15.1475 10.9712 14.0562 10.9712 12.9264C10.9712 11.7968 11.5642 11.2415 11.7746 11.0117C11.9848 10.782 12.2335 10.7245 12.3865 10.7245C12.5395 10.7245 12.6927 10.7259 12.8264 10.7326C12.9673 10.7397 13.1565 10.6791 13.3429 11.1266C13.5341 11.5862 13.9931 12.7159 14.0505 12.8308C14.1079 12.9457 14.1462 13.0797 14.0697 13.2329C13.9932 13.386 13.9549 13.4818 13.8402 13.6158C13.7254 13.7498 13.5991 13.915 13.4959 14.0178C13.381 14.1323 13.2613 14.2565 13.3952 14.4862C13.5291 14.7161 13.9897 15.4676 14.6721 16.0762C15.5487 16.8581 16.2883 17.1005 16.5178 17.2154C16.7472 17.3304 16.8812 17.311 17.015 17.158C17.1489 17.0048 17.5888 16.4877 17.7418 16.258C17.8948 16.0283 18.0478 16.0666 18.2582 16.1432C18.4685 16.2198 19.597 16.775 19.8265 16.8898C20.056 17.0047 20.209 17.0622 20.2663 17.158C20.3237 17.2536 20.3237 17.7132 20.1324 18.2494Z" fill="black"/>
<path d="M15.3029 0C6.85162 0 0 6.85038 0 15.3017C0 23.753 6.85162 30.6047 15.3029 30.6047C23.7537 30.6047 30.6053 23.753 30.6053 15.3017C30.6053 6.85038 23.7537 0 15.3029 0ZM15.6388 24.1591C15.6385 24.1591 15.639 24.1591 15.6388 24.1591H15.635C14.0977 24.1585 12.587 23.7728 11.2454 23.041L6.37603 24.3184L7.67919 19.5585C6.87536 18.1655 6.45241 16.5853 6.45309 14.9664C6.45508 9.90189 10.5758 5.7815 15.6387 5.7815C18.0959 5.78249 20.4022 6.73908 22.1364 8.47532C23.8707 10.2115 24.8253 12.5193 24.8243 14.9737C24.8222 20.0383 20.7012 24.1591 15.6388 24.1591Z" fill="black"/>
</svg>
