<svg width="21" height="21" viewBox="0 0 21 21" fill="none" xmlns="http://www.w3.org/2000/svg">
<path d="M11.6973 10.5073L9.55269 9.50663C9.36554 9.41974 9.21181 9.51714 9.21181 9.72434V11.6092C9.21181 11.8164 9.36554 11.9138 9.55269 11.8269L11.6964 10.8263C11.8845 10.7384 11.8845 10.5952 11.6973 10.5073ZM10.1667 1.50012C5.10399 1.50012 1 5.60412 1 10.6668C1 15.7295 5.10399 19.8335 10.1667 19.8335C15.2293 19.8335 19.3333 15.7295 19.3333 10.6668C19.3333 5.60412 15.2293 1.50012 10.1667 1.50012ZM10.1667 14.3907C5.47448 14.3907 5.39236 13.9677 5.39236 10.6668C5.39236 7.36583 5.47448 6.94283 10.1667 6.94283C14.8589 6.94283 14.941 7.36583 14.941 10.6668C14.941 13.9677 14.8589 14.3907 10.1667 14.3907Z" fill="white"/>
</svg>
